<?xml version="1.0" encoding="utf-8"?>
<!-- Generator: Adobe Illustrator 23.0.3, SVG Export Plug-In . SVG Version: 6.00 Build 0)  -->
<svg version="1.1" id="Layer_1" xmlns="http://www.w3.org/2000/svg" xmlns:xlink="http://www.w3.org/1999/xlink" x="0px" y="0px"
	 viewBox="0 0 180 50" style="enable-background:new 0 0 180 50;" xml:space="preserve">
<style type="text/css">
	.st0{fill:#104946;}
</style>
<path class="st0" d="M3.3,5.6c0-0.6,0.5-1.1,1.1-1.1h7c0.6,0,1.1,0.5,1.1,1.1v14.8h16.8V5.6c0-0.6,0.5-1.1,1.1-1.1h7
	c0.6,0,1.1,0.5,1.1,1.1v38.8c0,0.6-0.5,1.1-1.1,1.1h-7c-0.6,0-1.1-0.5-1.1-1.1V29.1H12.5v15.4c0,0.6-0.5,1.1-1.1,1.1h-7
	c-0.6,0-1.1-0.5-1.1-1.1V5.6z"/>
<path class="st0" d="M47,44.1L65.4,4.6c0.2-0.4,0.6-0.6,1-0.6h0.6c0.4,0,0.8,0.3,1,0.6l18.4,39.5c0.4,0.8-0.1,1.5-1,1.5h-6.5
	c-1.1,0-1.5-0.4-2.1-1.5l-2.1-4.6h-16l-2.1,4.7c-0.3,0.7-0.9,1.4-2.1,1.4H48C47.1,45.6,46.6,44.8,47,44.1z M71.1,31.5l-4.5-9.7h-0.1
	l-4.4,9.7H71.1z"/>
<path class="st0" d="M94.8,5c0-0.6,0.5-1.1,1.1-1.1h1.5l23.4,22.5h0.1V5.6c0-0.6,0.5-1.1,1.1-1.1h7c0.6,0,1.1,0.5,1.1,1.1v39.5
	c0,0.6-0.5,1.1-1.1,1.1H128c-0.2,0-0.6-0.2-0.8-0.3l-23.2-23.3H104v21.9c0,0.6-0.5,1.1-1.1,1.1h-7c-0.6,0-1.1-0.5-1.1-1.1L94.8,5z"
	/>
<path class="st0" d="M143.9,5.9c0-0.8,0.6-1.4,1.4-1.4h6.9c0.8,0,1.4,0.6,1.4,1.4v15.4l13-16.3c0.2-0.3,0.8-0.6,1.1-0.6h7.4
	c1.1,0,1.7,1.3,1.1,2.2l-13.7,17.2l15,19.5c0.6,0.9,0,2.2-1.1,2.2h-8.1c-0.4,0-0.9-0.2-1.1-0.4l-13.6-18.4v17.5
	c0,0.8-0.6,1.4-1.4,1.4h-6.9c-0.8,0-1.4-0.6-1.4-1.4V5.9z"/>
</svg>
